<svg width="15" height="16" viewBox="0 0 15 16" fill="none" xmlns="http://www.w3.org/2000/svg">
<path d="M14.9733 8.39673C14.9733 7.53756 14.8204 6.71381 14.54 5.95173C14.3483 8.19714 13.1512 9.35048 11.9004 8.81339C10.7287 8.31006 11.5183 6.34798 11.5766 5.41173C11.675 3.82464 11.5716 2.00798 8.68872 0.497559C9.88664 2.78923 8.82747 4.21298 7.71664 4.29964C6.48414 4.39589 5.35539 3.24048 5.77206 1.36548C4.42289 2.35964 4.38372 4.03298 4.79997 5.11548C5.23414 6.24381 4.78247 7.18131 3.72372 7.28548C2.54039 7.40214 1.88289 6.01839 2.48914 3.81339C1.43997 5.04881 0.806641 6.64881 0.806641 8.39673C0.806641 12.3088 3.97789 15.4801 7.88997 15.4801C11.8021 15.4801 14.9733 12.3088 14.9733 8.39673Z" fill="#F4900C"/>
</svg>
