<svg width="20" height="19" viewBox="0 0 20 19" fill="none" xmlns="http://www.w3.org/2000/svg">
<path d="M11.8574 1.45264C11.9043 1.24951 12.0176 1.09717 12.1973 0.995605C12.377 0.894043 12.5684 0.866699 12.7715 0.913574C13.4746 1.10107 14.1387 1.37451 14.7637 1.73389C15.3887 2.09326 15.959 2.53076 16.4746 3.04639C16.9902 3.56201 17.4277 4.13232 17.7871 4.75732C18.1465 5.38232 18.4199 6.04639 18.6074 6.74951C18.6543 6.95264 18.627 7.14404 18.5254 7.32373C18.4238 7.50342 18.2715 7.6167 18.0684 7.66357C17.8652 7.72607 17.6777 7.70264 17.5059 7.59326C17.334 7.48389 17.2168 7.33545 17.1543 7.14795C16.998 6.56982 16.7715 6.02295 16.4746 5.50732C16.1777 4.9917 15.8184 4.53076 15.3965 4.12451C14.9902 3.70264 14.5293 3.34326 14.0137 3.04639C13.498 2.74951 12.9512 2.52295 12.373 2.3667C12.1855 2.3042 12.0371 2.18701 11.9277 2.01514C11.8184 1.84326 11.7949 1.65576 11.8574 1.45264ZM11.0605 4.33545C11.123 4.14795 11.2441 3.99951 11.4238 3.89014C11.6035 3.78076 11.7949 3.75732 11.998 3.81982C12.4355 3.9292 12.8535 4.10107 13.252 4.33545C13.6504 4.56982 14.0137 4.85107 14.3418 5.1792C14.6699 5.50732 14.9512 5.87061 15.1855 6.26904C15.4199 6.66748 15.5918 7.08545 15.7012 7.52295C15.7637 7.72607 15.7402 7.91748 15.6309 8.09717C15.5215 8.27686 15.373 8.39795 15.1855 8.46045C14.9824 8.50732 14.791 8.47998 14.6113 8.37842C14.4316 8.27686 14.3105 8.12451 14.248 7.92139C14.1699 7.59326 14.0488 7.28857 13.8848 7.00732C13.7207 6.72607 13.5215 6.46826 13.2871 6.23389C13.0527 5.99951 12.7949 5.80029 12.5137 5.63623C12.2324 5.47217 11.9277 5.35107 11.5996 5.27295C11.3965 5.21045 11.2441 5.08936 11.1426 4.90967C11.041 4.72998 11.0137 4.53857 11.0605 4.33545ZM5.22461 0.187012C5.38086 0.171387 5.53711 0.179199 5.69336 0.210449C5.84961 0.241699 5.99805 0.296387 6.13867 0.374512C6.2793 0.452637 6.4043 0.554199 6.51367 0.679199C6.62305 0.804199 6.70898 0.937012 6.77148 1.07764L8.66992 5.48389C8.7168 5.59326 8.74805 5.70654 8.76367 5.82373C8.7793 5.94092 8.78711 6.06201 8.78711 6.18701C8.77148 6.31201 8.74414 6.43311 8.70508 6.55029C8.66602 6.66748 8.61523 6.78076 8.55273 6.89014L6.98242 9.25732C7.32617 9.97607 7.7832 10.6206 8.35352 11.1909C8.92383 11.7612 9.56836 12.2183 10.2871 12.562L12.6309 10.9917C12.7246 10.9292 12.834 10.8745 12.959 10.8276C13.084 10.7808 13.209 10.7495 13.334 10.7339C13.4434 10.7339 13.5605 10.7417 13.6855 10.7573C13.8105 10.7729 13.9355 10.8042 14.0605 10.8511L18.4434 12.7495C18.584 12.812 18.7168 12.8979 18.8418 13.0073C18.9668 13.1167 19.0684 13.2417 19.1465 13.3823C19.2246 13.5229 19.2793 13.6714 19.3105 13.8276C19.3418 13.9839 19.3496 14.1401 19.334 14.2964C19.2559 14.937 19.0684 15.5386 18.7715 16.1011C18.4746 16.6636 18.084 17.1558 17.5996 17.5776C17.1152 17.9995 16.5762 18.3237 15.9824 18.5503C15.3887 18.7769 14.7715 18.8901 14.1309 18.8901C13.2402 18.8901 12.3574 18.8042 11.4824 18.6323C10.6074 18.4604 9.76758 18.2065 8.96289 17.8706C8.1582 17.5347 7.38086 17.1167 6.63086 16.6167C5.89648 16.1323 5.2168 15.5698 4.5918 14.9292C3.95117 14.3042 3.38867 13.6245 2.9043 12.8901C2.4043 12.1401 1.98633 11.3628 1.65039 10.5581C1.31445 9.75342 1.06055 8.91357 0.888672 8.03857C0.716797 7.16357 0.630859 6.28076 0.630859 5.39014C0.630859 4.74951 0.744141 4.13232 0.970703 3.53857C1.19727 2.94482 1.52148 2.40576 1.94336 1.92139C2.36523 1.43701 2.85742 1.04639 3.41992 0.749512C3.98242 0.452637 4.58398 0.265137 5.22461 0.187012ZM6.30273 9.58545L5.62305 9.91357C5.57617 9.8042 5.53711 9.68311 5.50586 9.55029C5.47461 9.41748 5.4668 9.28857 5.48242 9.16357C5.49805 9.03857 5.52539 8.91748 5.56445 8.80029C5.60352 8.68311 5.6543 8.56982 5.7168 8.46045V8.43701L7.28711 6.06982L5.38867 1.66357C4.95117 1.72607 4.5293 1.86279 4.12305 2.07373C3.7168 2.28467 3.36523 2.56201 3.06836 2.90576C2.77148 3.24951 2.54102 3.63623 2.37695 4.06592C2.21289 4.49561 2.13086 4.93701 2.13086 5.39014L6.30273 9.58545ZM14.1309 17.3901C14.584 17.3901 15.0254 17.3081 15.4551 17.144C15.8848 16.98 16.2715 16.7495 16.6152 16.4526C16.959 16.1558 17.2363 15.8042 17.4473 15.3979C17.6582 14.9917 17.7949 14.5698 17.8574 14.1323L13.4512 12.2339L11.1309 13.8042C11.1152 13.8042 11.1074 13.8042 11.1074 13.8042C11.0137 13.8823 10.9043 13.9409 10.7793 13.98C10.6543 14.019 10.5293 14.0464 10.4043 14.062C10.2637 14.062 10.1309 14.0503 10.0059 14.0269C9.88086 14.0034 9.75586 13.9683 9.63086 13.9214C8.75586 13.4995 7.97461 12.9448 7.28711 12.2573C6.59961 11.5698 6.04492 10.7886 5.62305 9.91357L6.30273 9.58545L14.1309 17.3901ZM2.13086 5.39014C2.13086 6.18701 2.20898 6.96826 2.36523 7.73389C2.52148 8.51514 2.74805 9.26514 3.04492 9.98389C3.3418 10.7026 3.70898 11.3901 4.14648 12.0464C4.58398 12.7026 5.08398 13.312 5.64648 13.8745C6.20898 14.437 6.81836 14.937 7.47461 15.3745C8.13086 15.812 8.81836 16.1792 9.53711 16.4761C10.2559 16.7729 11.0059 16.9995 11.7871 17.1558C12.5527 17.312 13.334 17.3901 14.1309 17.3901L2.13086 5.39014Z" fill="black"/>
</svg>
